<svg xmlns="http://www.w3.org/2000/svg" viewBox="0 0 1000 400" width="1000" height="400" fill="none" role="img" aria-label="Friday system architecture">
  <defs><linearGradient id="fa" x1="0" y1="0" x2="1000" y2="400" gradientUnits="userSpaceOnUse">
    <stop offset="0" stop-color="#04070a"/><stop offset="0.6" stop-color="#06171b"/><stop offset="1" stop-color="#0a2226"/></linearGradient></defs>
  <rect width="1000" height="400" rx="16" fill="url(#fa)"/>
  <text x="30" y="34" font-family="'Segoe UI',Arial,sans-serif" font-weight="800" font-size="18" fill="#e6fbff">Friday — System Architecture</text>
  <text x="970" y="34" text-anchor="end" font-family="'Consolas',monospace" font-size="12" fill="#5eead4">voice · vision · agents</text>
  <line x1="30" y1="44" x2="970" y2="44" stroke="#22d3ee" stroke-opacity="0.12"/>
  <line x1="156" y1="79" x2="172.0" y2="79.0" stroke="#22d3ee" stroke-opacity="0.5" stroke-width="2"/><path d="M180.0 79.0 L171.7 82.5 L171.7 75.5 Z" fill="#22d3ee"/><circle r="3" fill="#a5f3fc"><animateMotion path="M156 79 L180 79" dur="1.8s" begin="0s" repeatCount="indefinite"/><animate attributeName="opacity" values="0;1;1;0" dur="1.8s" begin="0s" repeatCount="indefinite"/></circle><line x1="312" y1="79" x2="328.0" y2="79.0" stroke="#22d3ee" stroke-opacity="0.5" stroke-width="2"/><path d="M336.0 79.0 L327.7 82.5 L327.7 75.5 Z" fill="#22d3ee"/><circle r="3" fill="#a5f3fc"><animateMotion path="M312 79 L336 79" dur="1.8s" begin="0.3s" repeatCount="indefinite"/><animate attributeName="opacity" values="0;1;1;0" dur="1.8s" begin="0.3s" repeatCount="indefinite"/></circle><line x1="468" y1="79" x2="472.8" y2="112.1" stroke="#22d3ee" stroke-opacity="0.5" stroke-width="2"/><path d="M474.0 120.0 L469.3 112.3 L476.3 111.3 Z" fill="#22d3ee"/><circle r="3" fill="#a5f3fc"><animateMotion path="M468 79 L474 120" dur="1.8s" begin="0.6s" repeatCount="indefinite"/><animate attributeName="opacity" values="0;1;1;0" dur="1.8s" begin="0.6s" repeatCount="indefinite"/></circle><line x1="156" y1="227" x2="172.0" y2="227.0" stroke="#ec4899" stroke-opacity="0.5" stroke-width="2"/><path d="M180.0 227.0 L171.7 230.5 L171.7 223.5 Z" fill="#ec4899"/><circle r="3" fill="#a5f3fc"><animateMotion path="M156 227 L180 227" dur="1.8s" begin="0s" repeatCount="indefinite"/><animate attributeName="opacity" values="0;1;1;0" dur="1.8s" begin="0s" repeatCount="indefinite"/></circle><line x1="338" y1="227" x2="466.7" y2="171.2" stroke="#ec4899" stroke-opacity="0.5" stroke-width="2"/><path d="M474.0 168.0 L467.8 174.5 L465.0 168.1 Z" fill="#ec4899"/><circle r="3" fill="#a5f3fc"><animateMotion path="M338 227 L474 168" dur="1.8s" begin="0.4s" repeatCount="indefinite"/><animate attributeName="opacity" values="0;1;1;0" dur="1.8s" begin="0.4s" repeatCount="indefinite"/></circle><line x1="650" y1="120" x2="684.4" y2="84.7" stroke="#2dd4bf" stroke-opacity="0.5" stroke-width="2"/><path d="M690.0 79.0 L686.7 87.4 L681.7 82.5 Z" fill="#2dd4bf"/><circle r="3" fill="#a5f3fc"><animateMotion path="M650 120 L690 79" dur="1.8s" begin="0s" repeatCount="indefinite"/><animate attributeName="opacity" values="0;1;1;0" dur="1.8s" begin="0s" repeatCount="indefinite"/></circle><line x1="822" y1="79" x2="830.0" y2="79.0" stroke="#2dd4bf" stroke-opacity="0.5" stroke-width="2"/><path d="M838.0 79.0 L829.7 82.5 L829.7 75.5 Z" fill="#2dd4bf"/><circle r="3" fill="#a5f3fc"><animateMotion path="M822 79 L838 79" dur="1.8s" begin="0.3s" repeatCount="indefinite"/><animate attributeName="opacity" values="0;1;1;0" dur="1.8s" begin="0.3s" repeatCount="indefinite"/></circle><line x1="512" y1="192" x2="512.0" y2="292.0" stroke="#38bdf8" stroke-opacity="0.5" stroke-width="2"/><path d="M512.0 300.0 L508.5 291.7 L515.5 291.7 Z" fill="#38bdf8"/><path d="M512.0 192.0 L508.5 183.7 L515.5 183.7 Z" fill="#38bdf8"/><circle r="3" fill="#a5f3fc"><animateMotion path="M512 192 L512 300" dur="1.8s" begin="0s" repeatCount="indefinite"/><animate attributeName="opacity" values="0;1;1;0" dur="1.8s" begin="0s" repeatCount="indefinite"/></circle><line x1="586" y1="327" x2="634.0" y2="327.0" stroke="#38bdf8" stroke-opacity="0.5" stroke-width="2"/><path d="M642.0 327.0 L633.7 330.5 L633.7 323.5 Z" fill="#38bdf8"/><path d="M586.0 327.0 L577.7 330.5 L577.7 323.5 Z" fill="#38bdf8"/><circle r="3" fill="#a5f3fc"><animateMotion path="M586 327 L642 327" dur="1.8s" begin="0.3s" repeatCount="indefinite"/><animate attributeName="opacity" values="0;1;1;0" dur="1.8s" begin="0.3s" repeatCount="indefinite"/></circle><rect x="24" y="52" width="132" height="54" rx="11" fill="#0b1519" stroke="#22d3ee" stroke-opacity="0.55" stroke-width="1.5"/><rect x="24" y="52" width="4" height="54" rx="2" fill="#22d3ee"/><text x="90" y="76" text-anchor="middle" font-family="'Segoe UI',Arial,sans-serif" font-weight="700" font-size="16" fill="#eaf7f9">Mic</text><text x="90" y="94" text-anchor="middle" font-family="'Consolas',monospace" font-size="11" fill="#82abb4">audio in</text><rect x="180" y="52" width="132" height="54" rx="11" fill="#0b1519" stroke="#22d3ee" stroke-opacity="0.55" stroke-width="1.5"/><rect x="180" y="52" width="4" height="54" rx="2" fill="#22d3ee"/><text x="246" y="76" text-anchor="middle" font-family="'Segoe UI',Arial,sans-serif" font-weight="700" font-size="16" fill="#eaf7f9">Wake Word</text><text x="246" y="94" text-anchor="middle" font-family="'Consolas',monospace" font-size="11" fill="#82abb4">openWakeWord</text><rect x="336" y="52" width="132" height="54" rx="11" fill="#0b1519" stroke="#22d3ee" stroke-opacity="0.55" stroke-width="1.5"/><rect x="336" y="52" width="4" height="54" rx="2" fill="#22d3ee"/><text x="402" y="76" text-anchor="middle" font-family="'Segoe UI',Arial,sans-serif" font-weight="700" font-size="16" fill="#eaf7f9">Whisper</text><text x="402" y="94" text-anchor="middle" font-family="'Consolas',monospace" font-size="11" fill="#82abb4">speech to text</text><rect x="474" y="96" width="176" height="96" rx="11" fill="#0b1519" stroke="#8b5cf6" stroke-opacity="0.55" stroke-width="1.5"/><rect x="474" y="96" width="4" height="96" rx="2" fill="#8b5cf6"/><text x="562" y="141" text-anchor="middle" font-family="'Segoe UI',Arial,sans-serif" font-weight="700" font-size="16" fill="#eaf7f9">Agent Core</text><text x="562" y="159" text-anchor="middle" font-family="'Consolas',monospace" font-size="11" fill="#82abb4">multi-agent router + LLM</text><rect x="690" y="52" width="132" height="54" rx="11" fill="#0b1519" stroke="#2dd4bf" stroke-opacity="0.55" stroke-width="1.5"/><rect x="690" y="52" width="4" height="54" rx="2" fill="#2dd4bf"/><text x="756" y="76" text-anchor="middle" font-family="'Segoe UI',Arial,sans-serif" font-weight="700" font-size="16" fill="#eaf7f9">Piper</text><text x="756" y="94" text-anchor="middle" font-family="'Consolas',monospace" font-size="11" fill="#82abb4">text to speech</text><rect x="838" y="52" width="138" height="54" rx="11" fill="#0b1519" stroke="#2dd4bf" stroke-opacity="0.55" stroke-width="1.5"/><rect x="838" y="52" width="4" height="54" rx="2" fill="#2dd4bf"/><text x="907" y="76" text-anchor="middle" font-family="'Segoe UI',Arial,sans-serif" font-weight="700" font-size="16" fill="#eaf7f9">Speaker</text><text x="907" y="94" text-anchor="middle" font-family="'Consolas',monospace" font-size="11" fill="#82abb4">audio out</text><rect x="24" y="200" width="132" height="54" rx="11" fill="#0b1519" stroke="#ec4899" stroke-opacity="0.55" stroke-width="1.5"/><rect x="24" y="200" width="4" height="54" rx="2" fill="#ec4899"/><text x="90" y="224" text-anchor="middle" font-family="'Segoe UI',Arial,sans-serif" font-weight="700" font-size="16" fill="#eaf7f9">Camera</text><text x="90" y="242" text-anchor="middle" font-family="'Consolas',monospace" font-size="11" fill="#82abb4">video in</text><rect x="180" y="200" width="158" height="54" rx="11" fill="#0b1519" stroke="#ec4899" stroke-opacity="0.55" stroke-width="1.5"/><rect x="180" y="200" width="4" height="54" rx="2" fill="#ec4899"/><text x="259" y="224" text-anchor="middle" font-family="'Segoe UI',Arial,sans-serif" font-weight="700" font-size="16" fill="#eaf7f9">MediaPipe</text><text x="259" y="242" text-anchor="middle" font-family="'Consolas',monospace" font-size="11" fill="#82abb4">presence + face ID</text><rect x="438" y="300" width="148" height="54" rx="11" fill="#0b1519" stroke="#38bdf8" stroke-opacity="0.55" stroke-width="1.5"/><rect x="438" y="300" width="4" height="54" rx="2" fill="#38bdf8"/><text x="512" y="324" text-anchor="middle" font-family="'Segoe UI',Arial,sans-serif" font-weight="700" font-size="16" fill="#eaf7f9">FastAPI</text><text x="512" y="342" text-anchor="middle" font-family="'Consolas',monospace" font-size="11" fill="#82abb4">backend / API</text><rect x="642" y="300" width="148" height="54" rx="11" fill="#0b1519" stroke="#38bdf8" stroke-opacity="0.55" stroke-width="1.5"/><rect x="642" y="300" width="4" height="54" rx="2" fill="#38bdf8"/><text x="716" y="324" text-anchor="middle" font-family="'Segoe UI',Arial,sans-serif" font-weight="700" font-size="16" fill="#eaf7f9">Web UI</text><text x="716" y="342" text-anchor="middle" font-family="'Consolas',monospace" font-size="11" fill="#82abb4">live control</text>
</svg>